# xmcd
#
# Track frame offsets:
#	150
#	16770
#	33625
#	52612
#	71317
#	90230
#	111982
#	135550
#	162047
#	183125
#	222017
#	244782
#	261770
#	333070
#
# Disc length: 4710 seconds
#
# Revision: 2
# Processed by: cddbd v1.5.2PL0 Copyright (c) Steve Scherf et al.
# Submitted via: EasyCDDAExtractor 15.3.0.1
#
DISCID=a512640e
DTITLE=Selena - The Original Motion Picture Soundtrack (20 Years Of Music)
DYEAR=2002
DGENRE=Pop
TTITLE0=Disco Medley Part I (I Will Survive, Funky Town)
TTITLE1=Where Did The Feeling Go
TTITLE2=Disco Medley Part II (Last Dance, The Hustle, On The Radio)
TTITLE3=Is It The Beat
TTITLE4=Only Love
TTITLE5=Oldies Medley (Blue Moon, We Belong Together)
TTITLE6=Dreaming Of You
TTITLE7=A Boy Like That
TTITLE8=I Could Fall In Love
TTITLE9=Cumbia Medley (Como La Flor, La Carcacha, Bidi Bidi Bom Bom, Baila Est
TTITLE9=a Cumbia)
TTITLE10=Viviras Selena
TTITLE11=One More Time
TTITLE12=Spoken Liner Notes By The Band And Family
TTITLE13=I Could Fall In Love (Video)
EXTD=YEAR: 2002
EXTT0=
EXTT1=
EXTT2=
EXTT3=
EXTT4=
EXTT5=
EXTT6=
EXTT7=
EXTT8=
EXTT9=
EXTT10=
EXTT11=
EXTT12=
EXTT13=
PLAYORDER=
